<?xml version="1.0" encoding="UTF-8" standalone="no"?>
<svg
   xmlns:dc="http://purl.org/dc/elements/1.1/"
   xmlns:cc="http://creativecommons.org/ns#"
   xmlns:rdf="http://www.w3.org/1999/02/22-rdf-syntax-ns#"
   xmlns:svg="http://www.w3.org/2000/svg"
   xmlns="http://www.w3.org/2000/svg"
   xmlns:sodipodi="http://sodipodi.sourceforge.net/DTD/sodipodi-0.dtd"
   xmlns:inkscape="http://www.inkscape.org/namespaces/inkscape"
   version="1.1"
   id="Layer_1"
   x="0px"
   y="0px"
   viewBox="0 0 1000 1000"
   style="enable-background:new 0 0 1000 1000;"
   xml:space="preserve"
   sodipodi:docname="farm.svg"
   inkscape:version="1.0 (4035a4fb49, 2020-05-01)"><metadata
   id="metadata455"><rdf:RDF><cc:Work
       rdf:about=""><dc:format>image/svg+xml</dc:format><dc:type
         rdf:resource="http://purl.org/dc/dcmitype/StillImage" /></cc:Work></rdf:RDF></metadata><defs
   id="defs453" /><sodipodi:namedview
   inkscape:document-rotation="0"
   pagecolor="#ffffff"
   bordercolor="#666666"
   borderopacity="1"
   objecttolerance="10"
   gridtolerance="10"
   guidetolerance="10"
   inkscape:pageopacity="0"
   inkscape:pageshadow="2"
   inkscape:window-width="1920"
   inkscape:window-height="1046"
   id="namedview451"
   showgrid="false"
   inkscape:zoom="0.86"
   inkscape:cx="500"
   inkscape:cy="477.61603"
   inkscape:window-x="-11"
   inkscape:window-y="-11"
   inkscape:window-maximized="1"
   inkscape:current-layer="Layer_1" />
<style
   type="text/css"
   id="style2">
	.st0{fill:#CCECFF;}
	.st1{fill:#F03A47;}
	.st2{fill:#72B579;}
	.st3{fill:none;stroke:#464950;stroke-width:10;stroke-linecap:round;stroke-linejoin:round;stroke-miterlimit:10;}
	.st4{fill:#AECC75;}
	.st5{opacity:0.51;fill:#464950;}
	.st6{fill:none;stroke:#DD2A40;stroke-width:6;stroke-miterlimit:10;}
	.st7{opacity:0.85;fill:none;stroke:#464950;stroke-width:6;stroke-linejoin:round;stroke-miterlimit:10;}
	.st8{fill:#DD2A40;}
	.st9{fill:#50B893;}
	.st10{opacity:0.55;fill:#464950;}
	.st11{fill:#429977;}
	.st12{opacity:0.31;fill:#464950;}
	.st13{fill:#5A646D;}
	.st14{fill:#F4FFC5;}
	.st15{fill:#B7C391;}
	.st16{fill:#4C555C;}
	.st17{fill:none;stroke:#464950;stroke-width:8;stroke-linecap:round;stroke-linejoin:round;stroke-miterlimit:10;}
	.st18{opacity:0.92;fill:#DD2A40;}
	.st19{opacity:0.4;}
	.st20{fill:none;stroke:#464950;stroke-width:3;stroke-linecap:round;stroke-linejoin:round;stroke-miterlimit:10;}
	.st21{opacity:0.97;}
	.st22{fill:#A58167;}
	.st23{opacity:0.38;fill:#464950;}
	.st24{fill:none;stroke:#464950;stroke-width:6;stroke-linecap:round;stroke-linejoin:round;stroke-miterlimit:10;}
	.st25{fill:none;stroke:#464950;stroke-width:7;stroke-linecap:round;stroke-linejoin:round;stroke-miterlimit:10;}
	.st26{opacity:0.47;fill:#A58167;}
	.st27{opacity:0.76;fill:#464950;}
	.st28{opacity:0.67;fill:#464950;}
	.st29{fill:#62A366;}
	.st30{opacity:0.3;fill:#464950;}
	.st31{opacity:0.43;fill:#C7CAD1;}
	.st32{opacity:0.35;fill:#C7CAD1;}
	.st33{fill:#464950;}
</style>
<rect
   id="XMLID_45_"
   class="st0"
   width="1119.7676"
   height="786.315"
   style="fill:#ccecff;fill-opacity:0;stroke-width:0.938345"
   x="-59.302326"
   y="86.940704" />

<path
   style="stroke-width:1.49169"
   id="XMLID_40_"
   class="st2"
   d="m -4.9861974,713.52554 c -11.4162586,-10.1354 -18.5514256,-25.57239 -18.5514256,-42.88052 0,-30.40616 22.54711419,-55.19888 50.516929,-55.19888 27.969831,0 50.374239,24.79272 50.374239,55.35482 0,17.30812 -7.277859,32.74511 -18.551405,42.8805 z" />
<path
   id="XMLID_41_"
   class="st3"
   d="m -4.9861974,713.52554 c -11.4162586,-10.1354 -18.5514256,-25.57239 -18.5514256,-42.88052 0,-30.40616 22.54711419,-55.19888 50.516929,-55.19888 27.969831,0 50.374239,24.79272 50.374239,55.35482 0,17.30812 -7.277859,32.74511 -18.551405,42.8805 z" />
<ellipse
   style="stroke-width:1.49169"
   id="XMLID_230_"
   class="st4"
   cx="687.12439"
   cy="645.38446"
   rx="30.395782"
   ry="67.517303" />
<path
   style="stroke-width:1.49169"
   id="XMLID_235_"
   class="st5"
   d="m 669.42921,645.38451 c 0,-32.43325 10.27463,-59.40897 23.97413,-65.95801 -2.14053,-0.93557 -4.28107,-1.55928 -6.42165,-1.55928 -16.83896,0 -30.39576,30.25025 -30.39576,67.51729 0,37.26706 13.5568,67.51729 30.39576,67.51729 2.14058,0 4.28112,-0.46778 6.42165,-1.55926 -13.6995,-6.54903 -23.97413,-33.52478 -23.97413,-65.95803 z" />
<ellipse
   id="XMLID_229_"
   class="st3"
   cx="687.12439"
   cy="645.38446"
   rx="30.395782"
   ry="67.517303" />
<polygon
   transform="matrix(1.4270322,0,0,1.559291,-208.05288,-418.51974)"
   id="XMLID_124_"
   class="st1"
   points="179.7,447 177.1,560 173.3,726 291.1,726 287.3,560 284.7,447 " />
<line
   id="XMLID_157_"
   class="st6"
   x1="135.14835"
   y1="507.38721"
   x2="202.36162"
   y2="507.38721" />
<line
   id="XMLID_160_"
   class="st7"
   x1="90.196854"
   y1="531.55627"
   x2="133.29318"
   y2="531.55627" />
<line
   id="XMLID_161_"
   class="st7"
   x1="183.23935"
   y1="551.35931"
   x2="204.78752"
   y2="551.35931" />
<line
   id="XMLID_162_"
   class="st7"
   x1="161.69119"
   y1="629.32379"
   x2="181.09883"
   y2="629.32379" />
<line
   id="XMLID_158_"
   class="st6"
   x1="181.09883"
   y1="601.56848"
   x2="202.36162"
   y2="601.56848" />
<line
   id="XMLID_159_"
   class="st6"
   x1="176.8177"
   y1="662.84857"
   x2="189.51828"
   y2="662.84857" />
<polygon
   transform="matrix(1.4270322,0,0,1.559291,-208.05288,-418.51974)"
   id="XMLID_125_"
   class="st8"
   points="205.7,573 287.6,573 287.3,560 203.9,560 " />
<polygon
   transform="matrix(1.4270322,0,0,1.559291,-208.05288,-418.51974)"
   id="XMLID_135_"
   class="st8"
   points="207,726 211.9,456 284.9,455.8 284.7,447 179.7,447 177.1,560 173.3,726 " />
<ellipse
   style="stroke-width:1.49169"
   ry="128.79742"
   rx="117.87285"
   id="XMLID_52_"
   class="st9"
   cx="353.62701"
   cy="253.6906" />
<path
   style="stroke-width:1.49169"
   id="XMLID_200_"
   class="st10"
   d="m 257.44503,253.69062 c 0,-67.20546 47.09203,-122.40435 107.1701,-128.32966 -3.56757,-0.31186 -7.13515,-0.62371 -10.84544,-0.62371 -65.07268,0 -117.87286,57.69376 -117.87286,128.79743 0,71.10368 52.80018,128.79744 117.87286,128.79744 3.71029,0 7.27787,-0.15593 10.84544,-0.62371 -60.22076,-5.61345 -107.1701,-60.81235 -107.1701,-128.01779 z" />
<polyline
   transform="matrix(1.4270322,0,0,1.559291,-208.05288,-418.51974)"
   id="XMLID_138_"
   class="st3"
   points="393.6,431.1 393.6,452.7 393.6,494.5 " />
<line
   id="XMLID_139_"
   class="st3"
   x1="397.00879"
   y1="274.27322"
   x2="353.62701"
   y2="303.12009" />
<line
   id="XMLID_140_"
   class="st3"
   x1="353.62701"
   y1="325.72983"
   x2="317.09491"
   y2="294.07626" />
<ellipse
   ry="128.79742"
   rx="117.87285"
   id="XMLID_38_"
   class="st3"
   cx="353.62701"
   cy="253.6906" />
<ellipse
   style="stroke-width:1.49169"
   ry="54.575184"
   rx="49.946125"
   id="XMLID_51_"
   class="st11"
   cx="274.284"
   cy="377.49832" />
<path
   style="stroke-width:1.49169"
   id="XMLID_201_"
   class="st12"
   d="m 242.74659,377.49833 c 0,-26.66389 17.55248,-48.96175 40.8131,-53.63963 -2.99677,-0.62371 -5.99352,-0.93555 -9.133,-0.93555 -27.5417,0 -49.94612,24.48085 -49.94612,54.57518 0,30.0943 22.40442,54.57518 49.94612,54.57518 3.13948,0 6.13623,-0.31187 9.133,-0.93558 -23.26062,-4.67787 -40.8131,-26.97573 -40.8131,-53.6396 z" />
<line
   id="XMLID_142_"
   class="st3"
   x1="285.70032"
   y1="390.9082"
   x2="327.0842"
   y2="420.84659" />
<ellipse
   ry="54.575184"
   rx="49.946125"
   id="XMLID_44_"
   class="st3"
   cx="274.284"
   cy="377.49832" />
<polygon
   transform="matrix(1.4270322,0,0,1.559291,-208.05288,-418.51974)"
   id="XMLID_131_"
   class="st3"
   points="179.7,447 177.1,560 173.3,726 291.1,726 287.3,560 284.7,447 " />
<polygon
   transform="matrix(1.4270322,0,0,1.559291,-208.05288,-418.51974)"
   id="XMLID_130_"
   class="st13"
   points="303,561 161.4,561 177.9,536 286.5,536 " />
<polygon
   transform="matrix(1.4270322,0,0,1.559291,-208.05288,-418.51974)"
   id="XMLID_7_"
   class="st3"
   points="303,561 161.4,561 177.9,536 286.5,536 " />
<path
   style="stroke-width:1.49169"
   id="XMLID_129_"
   class="st14"
   d="M 109.74719,378.27796 H 74.071385 v -42.8805 c 0,-10.7591 7.991367,-19.49113 17.837897,-19.49113 v 0 c 9.846528,0 17.837908,8.73203 17.837908,19.49113 z" />
<path
   style="stroke-width:1.49169"
   id="XMLID_127_"
   class="st14"
   d="m 172.53659,378.27796 h -37.10282 v -42.8805 c 0,-10.7591 7.99137,-19.49113 17.8379,-19.49113 h 1.42704 c 9.84651,0 17.83788,8.73203 17.83788,19.49113 z" />
<path
   style="stroke-width:1.49169"
   id="XMLID_134_"
   class="st15"
   d="m 91.909282,315.90633 v 0 c -9.84653,0 -17.837897,8.73203 -17.837897,19.49113 v 17.15221 c 0,-10.75912 7.991367,-19.49114 17.837897,-19.49114 v 0 c 9.846528,0 17.837908,8.73202 17.837908,19.49114 v -17.15221 c 0,-10.7591 -7.99138,-19.49113 -17.837908,-19.49113 z" />
<path
   style="stroke-width:1.49169"
   id="XMLID_136_"
   class="st15"
   d="m 154.69871,315.90633 h -1.42704 c -9.84653,0 -17.8379,8.73203 -17.8379,19.49113 v 17.15221 c 0,-10.75912 7.99137,-19.49114 17.8379,-19.49114 h 1.42704 c 9.84651,0 17.83788,8.73202 17.83788,19.49114 v -17.15221 c 0,-10.7591 -7.99137,-19.49113 -17.83788,-19.49113 z" />
<path
   id="XMLID_10_"
   class="st3"
   d="M 109.74719,378.27796 H 74.071385 v -42.8805 c 0,-10.7591 7.991367,-19.49113 17.837897,-19.49113 v 0 c 9.846528,0 17.837908,8.73203 17.837908,19.49113 z" />
<path
   id="XMLID_14_"
   class="st3"
   d="m 172.53659,378.27796 h -37.10282 v -42.8805 c 0,-10.7591 7.99137,-19.49113 17.8379,-19.49113 h 1.42704 c 9.84651,0 17.83788,8.73203 17.83788,19.49113 z" />
<polygon
   transform="matrix(1.4270322,0,0,1.559291,-208.05288,-418.51974)"
   id="XMLID_126_"
   class="st13"
   points="232.2,383.6 297.2,447 167.2,447 " />
<polygon
   transform="matrix(1.4270322,0,0,1.559291,-208.05288,-418.51974)"
   id="XMLID_128_"
   class="st16"
   points="167.2,447 232.2,383.6 213.3,447 " />
<polygon
   transform="matrix(1.4270322,0,0,1.559291,-208.05288,-418.51974)"
   id="XMLID_8_"
   class="st3"
   points="232.2,383.6 297.2,447 167.2,447 " />
<rect
   style="stroke-width:1.49169"
   id="XMLID_12_"
   x="82.918976"
   y="556.03705"
   class="st14"
   width="80.912727"
   height="157.48837" />
<rect
   style="stroke-width:1.49169"
   id="XMLID_13_"
   x="82.918976"
   y="556.03705"
   class="st15"
   width="80.912727"
   height="19.958925" />
<rect
   style="stroke-width:1.49169"
   id="XMLID_231_"
   x="84.346016"
   y="556.03705"
   class="st15"
   width="11.558961"
   height="157.48837" />
<rect
   id="XMLID_15_"
   x="82.918976"
   y="556.03705"
   class="st3"
   width="80.912727"
   height="157.48837" />
<line
   id="XMLID_17_"
   class="st17"
   x1="97.474716"
   y1="573.18933"
   x2="149.13327"
   y2="696.37329" />
<line
   id="XMLID_18_"
   class="st17"
   x1="149.13327"
   y1="573.18933"
   x2="97.474716"
   y2="696.37329" />
<polygon
   transform="matrix(1.4270322,0,0,1.559291,-208.05288,-418.51974)"
   id="XMLID_47_"
   class="st1"
   points="473.1,447 382.8,492.4 353.4,544 353.4,723.8 592.8,723.8 592.8,544 563.4,492.4 " />
<polygon
   transform="matrix(1.4270322,0,0,1.559291,-208.05288,-418.51974)"
   id="XMLID_60_"
   class="st1"
   points="473.1,447 382.8,492.4 353.4,544 353.4,723.8 592.8,723.8 592.8,544 563.4,492.4 " />
<rect
   style="stroke-width:1.49169"
   id="XMLID_216_"
   x="296.26025"
   y="497.4079"
   class="st18"
   width="14.555728"
   height="214.55846" />
<polygon
   transform="matrix(1.4270322,0,0,1.559291,-208.05288,-418.51974)"
   id="XMLID_66_"
   class="st18"
   points="595.8,544 566.4,492.4 476.1,447 385.8,492.4 356.4,544 356.4,596.4 404.5,517.1 476.1,481.1 547.7,517.1 595.8,596.4 " />
<g
   transform="matrix(1.4270322,0,0,1.559291,-208.05288,-418.51974)"
   id="XMLID_71_"
   class="st19">
	<g
   id="XMLID_97_">
		<line
   id="XMLID_98_"
   class="st20"
   x1="403.79999"
   y1="489"
   x2="542.40002"
   y2="489" />
	</g>
	<g
   id="XMLID_95_">
		<line
   id="XMLID_96_"
   class="st20"
   x1="383.5"
   y1="507"
   x2="562.70001"
   y2="507" />
	</g>
	<g
   id="XMLID_93_">
		<line
   id="XMLID_94_"
   class="st20"
   x1="372.20001"
   y1="525"
   x2="574"
   y2="525" />
	</g>
	<g
   id="XMLID_91_">
		<line
   id="XMLID_92_"
   class="st20"
   x1="360.89999"
   y1="543"
   x2="585.29999"
   y2="543" />
	</g>
	<g
   id="XMLID_89_">
		<line
   id="XMLID_90_"
   class="st20"
   x1="353.39999"
   y1="561"
   x2="592.79999"
   y2="561" />
	</g>
	<g
   id="XMLID_87_">
		<line
   id="XMLID_88_"
   class="st20"
   x1="353.39999"
   y1="579"
   x2="592.79999"
   y2="579" />
	</g>
	<g
   id="XMLID_85_">
		<line
   id="XMLID_86_"
   class="st20"
   x1="353.39999"
   y1="597"
   x2="592.79999"
   y2="597" />
	</g>
	<g
   id="XMLID_83_">
		<line
   id="XMLID_84_"
   class="st20"
   x1="353.39999"
   y1="615"
   x2="592.79999"
   y2="615" />
	</g>
	<g
   id="XMLID_81_">
		<line
   id="XMLID_82_"
   class="st20"
   x1="353.39999"
   y1="633"
   x2="592.79999"
   y2="633" />
	</g>
	<g
   id="XMLID_78_">
		<line
   id="XMLID_79_"
   class="st20"
   x1="353.39999"
   y1="651"
   x2="592.79999"
   y2="651" />
	</g>
	<g
   id="XMLID_76_">
		<line
   id="XMLID_77_"
   class="st20"
   x1="353.39999"
   y1="669"
   x2="592.79999"
   y2="669" />
	</g>
	<g
   id="XMLID_74_">
		<line
   id="XMLID_75_"
   class="st20"
   x1="353.39999"
   y1="687"
   x2="592.79999"
   y2="687" />
	</g>
	<g
   id="XMLID_72_">
		<line
   id="XMLID_73_"
   class="st20"
   x1="353.39999"
   y1="705"
   x2="592.79999"
   y2="705" />
	</g>
</g>
<rect
   style="stroke-width:1.49169"
   id="XMLID_16_"
   x="296.26025"
   y="497.4079"
   class="st8"
   width="341.63147"
   height="15.281053" />
<g
   transform="matrix(1.4270322,0,0,1.559291,-208.05288,-418.51974)"
   id="XMLID_69_"
   class="st21">
	<g
   id="XMLID_122_">
		<line
   id="XMLID_123_"
   class="st20"
   x1="403.79999"
   y1="492"
   x2="542.40002"
   y2="492" />
	</g>
	<g
   id="XMLID_120_">
		<line
   id="XMLID_121_"
   class="st20"
   x1="383.5"
   y1="510"
   x2="562.70001"
   y2="510" />
	</g>
	<g
   id="XMLID_118_">
		<line
   id="XMLID_119_"
   class="st20"
   x1="372.20001"
   y1="528"
   x2="574"
   y2="528" />
	</g>
	<g
   id="XMLID_116_">
		<line
   id="XMLID_117_"
   class="st20"
   x1="360.89999"
   y1="546"
   x2="585.29999"
   y2="546" />
	</g>
	<g
   id="XMLID_114_">
		<line
   id="XMLID_115_"
   class="st20"
   x1="353.39999"
   y1="564"
   x2="592.79999"
   y2="564" />
	</g>
	<g
   id="XMLID_112_">
		<line
   id="XMLID_113_"
   class="st20"
   x1="353.39999"
   y1="582"
   x2="592.79999"
   y2="582" />
	</g>
	<g
   id="XMLID_110_">
		<line
   id="XMLID_111_"
   class="st20"
   x1="353.39999"
   y1="600"
   x2="592.79999"
   y2="600" />
	</g>
	<g
   id="XMLID_108_">
		<line
   id="XMLID_109_"
   class="st20"
   x1="353.39999"
   y1="618"
   x2="592.79999"
   y2="618" />
	</g>
	<g
   id="XMLID_106_">
		<line
   id="XMLID_107_"
   class="st20"
   x1="353.39999"
   y1="636"
   x2="592.79999"
   y2="636" />
	</g>
	<g
   id="XMLID_104_">
		<line
   id="XMLID_105_"
   class="st20"
   x1="353.39999"
   y1="654"
   x2="592.79999"
   y2="654" />
	</g>
	<g
   id="XMLID_102_">
		<line
   id="XMLID_103_"
   class="st20"
   x1="353.39999"
   y1="672"
   x2="592.79999"
   y2="672" />
	</g>
	<g
   id="XMLID_100_">
		<line
   id="XMLID_101_"
   class="st20"
   x1="353.39999"
   y1="690"
   x2="592.79999"
   y2="690" />
	</g>
	<g
   id="XMLID_80_">
		<line
   id="XMLID_99_"
   class="st20"
   x1="353.39999"
   y1="708"
   x2="592.79999"
   y2="708" />
	</g>
</g>
<polygon
   transform="matrix(1.4270322,0,0,1.559291,-208.05288,-418.51974)"
   id="XMLID_28_"
   class="st3"
   points="473.1,447 382.8,492.4 353.4,544 353.4,723.8 592.8,723.8 592.8,544 563.4,492.4 " />
<rect
   style="stroke-width:1.49169"
   id="XMLID_55_"
   x="368.18271"
   y="563.05396"
   class="st14"
   width="98.893333"
   height="147.04115" />
<rect
   style="stroke-width:1.49169"
   id="XMLID_62_"
   x="368.18271"
   y="563.05396"
   class="st14"
   width="98.893333"
   height="147.04115" />
<rect
   style="stroke-width:1.49169"
   id="XMLID_64_"
   x="368.18271"
   y="563.05396"
   class="st15"
   width="98.893333"
   height="21.050428" />
<rect
   style="stroke-width:1.49169"
   id="XMLID_215_"
   x="368.18271"
   y="563.05396"
   class="st15"
   width="13.128695"
   height="145.32591" />
<rect
   style="stroke-width:1.49169"
   id="XMLID_53_"
   x="467.07602"
   y="563.05396"
   class="st14"
   width="98.893333"
   height="147.04115" />
<rect
   style="stroke-width:1.49169"
   id="XMLID_67_"
   x="467.07602"
   y="563.05396"
   class="st15"
   width="98.893333"
   height="21.050428" />
<rect
   style="stroke-width:1.49169"
   id="XMLID_217_"
   x="467.07602"
   y="563.05396"
   class="st15"
   width="13.128695"
   height="145.32591" />
<rect
   id="XMLID_19_"
   x="368.18271"
   y="563.05396"
   class="st3"
   width="98.893333"
   height="147.04115" />
<rect
   id="XMLID_21_"
   x="467.07602"
   y="563.05396"
   class="st3"
   width="98.893333"
   height="147.04115" />
<rect
   style="stroke-width:1.49169"
   id="XMLID_56_"
   x="424.26511"
   y="372.0408"
   class="st14"
   width="85.621933"
   height="93.557449" />
<rect
   style="stroke-width:1.49169"
   id="XMLID_65_"
   x="424.26511"
   y="372.0408"
   class="st14"
   width="85.621933"
   height="93.557449" />
<rect
   style="stroke-width:1.49169"
   id="XMLID_68_"
   x="424.26511"
   y="372.0408"
   class="st15"
   width="85.621933"
   height="16.372553" />
<rect
   style="stroke-width:1.49169"
   id="XMLID_70_"
   x="424.26511"
   y="419.59918"
   class="st15"
   width="85.621933"
   height="12.474329" />
<rect
   id="XMLID_20_"
   x="424.26511"
   y="372.0408"
   class="st3"
   width="85.621933"
   height="93.557449" />
<polygon
   transform="matrix(1.4270322,0,0,1.559291,-208.05288,-418.51974)"
   id="XMLID_50_"
   class="st22"
   points="473.1,447 563.4,492.4 611.4,576.5 597.5,584.4 551.9,504.5 473.1,464.9 394.3,504.5 348.7,584.4 334.8,576.5 382.8,492.4 " />
<polygon
   transform="matrix(1.4270322,0,0,1.559291,-208.05288,-418.51974)"
   id="XMLID_33_"
   class="st3"
   points="473.1,447 563.4,492.4 611.4,576.5 597.5,584.4 551.9,504.5 473.1,464.9 394.3,504.5 348.7,584.4 334.8,576.5 382.8,492.4 " />
<ellipse
   style="stroke-width:1.49169"
   id="XMLID_171_"
   class="st4"
   cx="850.23419"
   cy="463.2594"
   rx="66.214294"
   ry="130.82451" />
<path
   style="stroke-width:1.49169"
   id="XMLID_202_"
   class="st5"
   d="m 801.7151,464.81862 c 0,-68.29695 26.54279,-124.27551 60.22077,-130.20081 -3.85301,-1.40336 -7.70599,-2.18302 -11.84439,-2.18302 -36.53202,0 -66.2143,58.62936 -66.2143,130.82453 0,72.19517 29.68228,130.82453 66.2143,130.82453 1.99785,0 3.99571,-0.15593 5.99353,-0.62373 C 825.26112,582.5451 801.7151,529.0614 801.7151,464.81862 Z" />
<ellipse
   id="XMLID_11_"
   class="st3"
   cx="850.23419"
   cy="463.2594"
   rx="66.214294"
   ry="130.82451" />
<polyline
   transform="matrix(1.4270322,0,0,1.559291,-208.05288,-418.51974)"
   id="XMLID_22_"
   class="st3"
   points="741.6,548.7 741.6,624 741.6,723.8 " />
<path
   style="stroke-width:1.49169"
   id="XMLID_163_"
   class="st2"
   d="m 1075.1345,344.7532 c 13.2714,50.67696 13.4141,98.07941 -2.1406,135.19054 -14.9838,36.79927 -45.5223,63.46314 -81.76893,63.15129 -36.38933,0.31185 -66.92781,-26.35202 -81.76896,-63.15129 -15.41194,-37.26705 -15.41194,-84.66951 -2.14052,-135.19054 30.68118,-101.19797 53.08557,-186.33527 83.90948,-186.33527 30.82393,-0.15592 53.22833,85.1373 83.90953,186.33527 z" />
<ellipse
   style="stroke-width:1.49169"
   ry="12.630258"
   rx="11.558961"
   id="XMLID_208_"
   class="st5"
   cx="959.4021"
   cy="465.59821" />
<path
   style="stroke-width:1.49169"
   id="XMLID_206_"
   class="st23"
   d="m 931.57502,479.63187 c -16.26817,-38.98227 -16.12547,-88.87957 -2.14056,-142.05141 23.97415,-79.8357 42.95368,-158.11209 63.93104,-171.52201 -0.85621,-0.15592 -1.28431,-7.95238 -2.14053,-7.95238 -30.82391,0 -53.2283,85.29321 -83.90948,186.33528 -13.27142,50.67695 -13.41411,98.07941 2.14052,135.19052 14.98383,36.79928 45.52233,63.46316 81.76896,63.1513 1.56974,0 2.99674,0 4.56652,-0.15593 -28.39796,-7.79645 -51.65858,-31.96547 -64.21647,-62.99537 z" />
<path
   id="XMLID_29_"
   class="st3"
   d="m 1075.1345,344.7532 c 13.2714,50.67696 13.4141,98.07941 -2.1406,135.19054 -14.9838,36.79927 -45.5223,63.46314 -81.76893,63.15129 -36.38933,0.31185 -66.92781,-26.35202 -81.76896,-63.15129 -15.41194,-37.26705 -15.41194,-84.66951 -2.14052,-135.19054 30.68118,-101.19797 53.08557,-186.33527 83.90948,-186.33527 30.82393,-0.15592 53.22833,85.1373 83.90953,186.33527 z" />
<path
   style="stroke-width:1.49169"
   id="XMLID_133_"
   class="st4"
   d="m 197.65236,710.0951 c 0,-22.92159 16.9817,-41.47715 37.95908,-41.47715 20.97736,0 37.95904,18.55556 37.95904,41.47715 z" />
<path
   id="XMLID_39_"
   class="st3"
   d="m 197.65236,710.0951 c 0,-22.92159 16.9817,-41.47715 37.95908,-41.47715 20.97736,0 37.95904,18.55556 37.95904,41.47715 z" />
<path
   style="stroke-width:1.49169"
   id="XMLID_233_"
   class="st4"
   d="m -77.051329,713.21367 c 0,-22.92157 16.981688,-41.47713 37.959057,-41.47713 20.977368,0 37.9590606,18.55556 37.9590606,41.47713 z" />
<path
   id="XMLID_42_"
   class="st3"
   d="m -77.051329,713.21367 c 0,-22.92157 16.981688,-41.47713 37.959057,-41.47713 20.977368,0 37.9590606,18.55556 37.9590606,41.47713 z" />
<line
   id="XMLID_63_"
   class="st3"
   x1="597.22131"
   y1="492.72995"
   x2="640.74585"
   y2="492.72995" />
<line
   id="XMLID_61_"
   class="st3"
   x1="558.26331"
   y1="492.72995"
   x2="575.38782"
   y2="492.72995" />
<line
   id="XMLID_54_"
   class="st3"
   x1="289.55328"
   y1="492.72995"
   x2="539.28381"
   y2="492.72995" />
<line
   id="XMLID_23_"
   class="st24"
   x1="467.07602"
   y1="373.60007"
   x2="467.07602"
   y2="468.24915" />
<line
   id="XMLID_24_"
   class="st24"
   x1="507.03302"
   y1="418.81949"
   x2="427.11917"
   y2="418.81949" />
<line
   id="XMLID_58_"
   class="st17"
   x1="385.7352"
   y1="584.10443"
   x2="449.52356"
   y2="689.04462" />
<line
   id="XMLID_59_"
   class="st17"
   x1="449.52356"
   y1="584.10443"
   x2="385.7352"
   y2="689.04462" />
<line
   id="XMLID_57_"
   class="st17"
   x1="484.62854"
   y1="584.10443"
   x2="548.41681"
   y2="689.04462" />
<line
   id="XMLID_26_"
   class="st17"
   x1="548.41681"
   y1="584.10443"
   x2="484.62854"
   y2="689.04462" />
<path
   id="XMLID_137_"
   class="st3"
   d="M 353.627,325.72985" />
<g
   transform="matrix(1.4270322,0,0,1.559291,-208.05288,-418.51974)"
   id="g361">
	<line
   id="XMLID_247_"
   class="st3"
   x1="257.5"
   y1="815.79999"
   x2="396.60001"
   y2="815.79999" />
	<line
   id="XMLID_175_"
   class="st3"
   x1="221"
   y1="815.79999"
   x2="235.5"
   y2="815.79999" />
	<rect
   id="XMLID_172_"
   x="276.20001"
   y="788.70001"
   class="st25"
   width="120.4"
   height="7" />
	<rect
   id="XMLID_174_"
   x="276.20001"
   y="765.5"
   class="st25"
   width="120.4"
   height="7" />
	<polygon
   id="XMLID_147_"
   class="st22"
   points="337.8,732.2 347.3,742.8 347.3,815.8 328.3,815.8 328.3,742.8 " />
	<polygon
   id="XMLID_253_"
   class="st26"
   points="340.8,733.2 331.3,743.8 331.3,816.8 337.3,816.8 337.3,747.8 345.6,738.6 " />
	<polygon
   id="XMLID_144_"
   class="st3"
   points="337.8,732.2 347.3,742.8 347.3,815.8 328.3,815.8 328.3,742.8 " />
	<polygon
   id="XMLID_173_"
   class="st22"
   points="376.1,732.2 385.6,742.8 385.6,815.8 366.6,815.8 366.6,742.8 " />
	<polygon
   id="XMLID_238_"
   class="st26"
   points="379.1,733.2 369.6,743.8 369.6,816.8 375.6,816.8 375.6,747.8 383.8,738.6 " />
	<polygon
   id="XMLID_185_"
   class="st3"
   points="376.1,732.2 385.6,742.8 385.6,815.8 366.6,815.8 366.6,742.8 " />
	<polygon
   id="XMLID_153_"
   class="st22"
   points="299.1,732.2 308.6,742.8 308.6,815.8 289.6,815.8 289.6,742.8 " />
	<polygon
   id="XMLID_150_"
   class="st22"
   points="299.1,732.2 308.6,742.8 308.6,815.8 289.6,815.8 289.6,742.8 " />
	<polygon
   id="XMLID_261_"
   class="st26"
   points="302.1,733.2 292.6,743.8 292.6,816.8 298.6,816.8 298.6,747.8 306.9,738.6 " />
	<polygon
   id="XMLID_151_"
   class="st3"
   points="299.1,732.2 308.6,742.8 308.6,815.8 289.6,815.8 289.6,742.8 " />
</g>
<ellipse
   style="stroke-width:1.49169"
   ry="10.291321"
   rx="9.4184122"
   id="XMLID_156_"
   class="st27"
   cx="384.7363"
   cy="192.09865" />
<ellipse
   style="stroke-width:1.49169"
   ry="19.179279"
   rx="17.552498"
   id="XMLID_170_"
   class="st27"
   cx="324.37283"
   cy="179.62433" />
<ellipse
   style="stroke-width:1.49169"
   ry="5.9253058"
   rx="5.4227223"
   id="XMLID_165_"
   class="st27"
   cx="317.09491"
   cy="253.6906" />
<ellipse
   style="stroke-width:1.49169"
   ry="12.474329"
   rx="11.416259"
   id="XMLID_164_"
   class="st28"
   cx="281.13373"
   cy="240.74846" />
<ellipse
   style="stroke-width:1.49169"
   ry="10.759109"
   rx="9.8465223"
   id="XMLID_169_"
   class="st28"
   cx="343.78052"
   cy="220.00989" />
<ellipse
   style="stroke-width:1.49169"
   ry="4.9897313"
   rx="4.5665026"
   id="XMLID_167_"
   class="st28"
   cx="424.83588"
   cy="245.73824" />
<ellipse
   style="stroke-width:1.49169"
   ry="35.551834"
   rx="32.536331"
   id="XMLID_177_"
   class="st29"
   cx="1067.0004"
   cy="325.26205" />
<path
   style="stroke-width:1.49169"
   id="XMLID_207_"
   class="st30"
   d="m 1051.8738,325.26207 c 0,-17.1522 11.1308,-31.49767 25.972,-34.92811 -2.1406,-0.46779 -4.2811,-0.77965 -6.5643,-0.77965 -17.9805,0 -32.5364,15.90476 -32.5364,35.55183 0,19.64706 14.5559,35.55184 32.5364,35.55184 2.2832,0 4.4237,-0.31186 6.5643,-0.77965 -14.8412,-3.11858 -25.972,-17.46406 -25.972,-34.61626 z" />
<ellipse
   ry="35.551834"
   rx="32.536331"
   id="XMLID_43_"
   class="st3"
   cx="1067.0004"
   cy="325.26205" />
<polyline
   transform="matrix(1.4270322,0,0,1.559291,-208.05288,-418.51974)"
   id="XMLID_30_"
   class="st3"
   points="840.4,498 840.4,582 840.4,723.8 " />
<path
   style="stroke-width:1.49169"
   id="XMLID_212_"
   class="st2"
   d="m 903.03438,711.49846 c 0,-45.5313 33.82065,-82.4865 75.49001,-82.4865 41.66941,0 75.49001,36.9552 75.49001,82.4865 z" />
<path
   style="stroke-width:1.49169"
   id="XMLID_210_"
   class="st2"
   d="m 903.03438,711.49846 c 0,-45.5313 33.82065,-82.4865 75.49001,-82.4865 41.66941,0 75.49001,36.9552 75.49001,82.4865 z" />
<path
   style="stroke-width:1.49169"
   id="XMLID_226_"
   class="st23"
   d="m 991.79578,630.25941 c -4.28109,-0.77965 -8.70489,-1.24745 -13.27139,-1.24745 -41.66936,0 -75.49001,36.9552 -75.49001,82.4865 h 26.68552 c 0,-40.54157 26.68549,-74.37818 62.07588,-81.23905 z" />
<path
   id="XMLID_211_"
   class="st3"
   d="m 903.03438,711.49846 c 0,-45.5313 33.82065,-82.4865 75.49001,-82.4865 41.66941,0 75.49001,36.9552 75.49001,82.4865 z" />
<line
   id="XMLID_186_"
   class="st3"
   x1="1034.3214"
   y1="460.92041"
   x2="991.22498"
   y2="501.46191" />
<line
   id="XMLID_187_"
   class="st3"
   x1="991.22498"
   y1="432.85315"
   x2="950.69727"
   y2="387.00998" />
<line
   id="XMLID_188_"
   class="st3"
   x1="877.20508"
   y1="527.50214"
   x2="850.23419"
   y2="554.47791" />
<line
   id="XMLID_189_"
   class="st3"
   x1="850.23419"
   y1="506.6076"
   x2="821.97888"
   y2="475.73364" />
<ellipse
   style="stroke-width:1.49169"
   ry="10.759109"
   rx="9.8465223"
   id="XMLID_166_"
   class="st5"
   cx="880.63007"
   cy="478.69632" />
<ellipse
   style="stroke-width:1.49169"
   ry="5.1456604"
   rx="4.7092061"
   id="XMLID_194_"
   class="st5"
   cx="820.69458"
   cy="426.77188" />
<ellipse
   style="stroke-width:1.49169"
   ry="11.538754"
   rx="10.560038"
   id="XMLID_196_"
   class="st31"
   cx="846.6665"
   cy="388.25748" />
<ellipse
   style="stroke-width:1.49169"
   ry="8.4201708"
   rx="7.7059741"
   id="XMLID_199_"
   class="st31"
   cx="995.7915"
   cy="266.94461" />
<ellipse
   style="stroke-width:1.49169"
   ry="8.5761013"
   rx="7.8486772"
   id="XMLID_203_"
   class="st5"
   cx="1016.3408"
   cy="366.58325" />
<ellipse
   style="stroke-width:1.49169"
   ry="12.630258"
   rx="11.558961"
   id="XMLID_205_"
   class="st31"
   cx="970.96112"
   cy="312.16403" />
<ellipse
   style="stroke-width:1.49169"
   ry="12.00654"
   rx="10.988148"
   id="XMLID_204_"
   class="st31"
   cx="1032.4662"
   cy="406.1893" />
<ellipse
   style="stroke-width:1.49169"
   ry="7.1727386"
   rx="6.5643477"
   id="XMLID_198_"
   class="st31"
   cx="872.63861"
   cy="428.79901" />
<ellipse
   style="stroke-width:1.49169"
   ry="5.3015895"
   rx="4.8519101"
   id="XMLID_197_"
   class="st32"
   cx="822.83527"
   cy="510.5058" />
<path
   style="stroke-width:1.49169"
   id="XMLID_209_"
   class="st4"
   d="m 1009.7764,711.49846 c 0,-27.44351 20.4066,-49.58545 45.3796,-49.58545 24.973,0 45.3795,22.29785 45.3795,49.58545 z" />
<path
   style="stroke-width:1.49169"
   id="XMLID_227_"
   class="st5"
   d="m 1067.4285,663.62823 c -3.853,-1.24745 -7.9914,-1.87114 -12.2725,-1.87114 -25.1157,0 -45.3796,22.29786 -45.3796,49.58545 h 24.6877 c -0.1429,-22.60973 13.8422,-41.78902 32.9644,-47.71431 z" />
<path
   id="XMLID_168_"
   class="st3"
   d="m 1009.7764,711.49846 c 0,-27.44351 20.4066,-49.58545 45.3796,-49.58545 24.973,0 45.3795,22.29785 45.3795,49.58545 z" />
<g
   transform="matrix(1.4270322,0,0,1.559291,-208.05288,-418.51974)"
   id="g417">
	<line
   id="XMLID_192_"
   class="st3"
   x1="864"
   y1="815.79999"
   x2="883.79999"
   y2="815.79999" />
	<line
   id="XMLID_190_"
   class="st3"
   x1="898.20001"
   y1="815.79999"
   x2="902.59998"
   y2="815.79999" />
	<line
   id="XMLID_191_"
   class="st3"
   x1="566.5"
   y1="815.79999"
   x2="848.5"
   y2="815.79999" />
	<line
   id="XMLID_46_"
   class="st3"
   x1="538"
   y1="815.79999"
   x2="549"
   y2="815.79999" />
	<rect
   id="XMLID_31_"
   x="554.29999"
   y="763.5"
   class="st17"
   width="286.10001"
   height="4" />
	<rect
   id="XMLID_37_"
   x="557.29999"
   y="786.70001"
   class="st17"
   width="286.10001"
   height="7" />
	<polygon
   id="XMLID_141_"
   class="st22"
   points="581.4,732.2 590.9,742.8 590.9,815.8 571.9,815.8 571.9,742.8 " />
	<polygon
   id="XMLID_237_"
   class="st26"
   points="584.4,733.2 574.9,743.8 574.9,816.8 580.9,816.8 580.9,747.8 589.2,738.6 " />
	<polygon
   id="XMLID_34_"
   class="st3"
   points="581.4,732.2 590.9,742.8 590.9,815.8 571.9,815.8 571.9,742.8 " />
	<polygon
   id="XMLID_155_"
   class="st22"
   points="677,732.2 686.5,742.8 686.5,815.8 667.5,815.8 667.5,742.8 " />
	<polygon
   id="XMLID_240_"
   class="st26"
   points="680,733.2 670.5,743.8 670.5,816.8 676.5,816.8 676.5,747.8 684.8,738.6 " />
	<polygon
   id="XMLID_154_"
   class="st22"
   points="724.8,732.2 734.3,742.8 734.3,815.8 715.3,815.8 715.3,742.8 " />
	<polygon
   id="XMLID_243_"
   class="st26"
   points="726.8,732.2 717.3,742.8 717.3,815.8 723.3,815.8 723.3,746.8 731.6,737.6 " />
	<polygon
   id="XMLID_146_"
   class="st22"
   points="629.2,732.2 638.7,742.8 638.7,815.8 619.7,815.8 619.7,742.8 " />
	<polygon
   id="XMLID_244_"
   class="st26"
   points="632.2,733.2 622.7,743.8 622.7,816.8 628.7,816.8 628.7,747.8 637,738.6 " />
	<polygon
   id="XMLID_27_"
   class="st3"
   points="677,732.2 686.5,742.8 686.5,815.8 667.5,815.8 667.5,742.8 " />
	<polygon
   id="XMLID_36_"
   class="st3"
   points="724.8,732.2 734.3,742.8 734.3,815.8 715.3,815.8 715.3,742.8 " />
	<polygon
   id="XMLID_32_"
   class="st3"
   points="629.2,732.2 638.7,742.8 638.7,815.8 619.7,815.8 619.7,742.8 " />
	<polygon
   id="XMLID_149_"
   class="st22"
   points="818.5,732.2 828,742.8 828,815.8 809,815.8 809,742.8 " />
	<polygon
   id="XMLID_236_"
   class="st26"
   points="821.5,733.2 812,743.8 812,816.8 818,816.8 818,747.8 826.3,738.6 " />
	<polygon
   id="XMLID_49_"
   class="st3"
   points="818.5,732.2 828,742.8 828,815.8 809,815.8 809,742.8 " />
	<polygon
   id="XMLID_152_"
   class="st22"
   points="772.1,732.2 781.6,742.8 781.6,815.8 762.6,815.8 762.6,742.8 " />
	<polygon
   id="XMLID_242_"
   class="st26"
   points="775.1,733.2 765.6,743.8 765.6,816.8 771.6,816.8 771.6,747.8 779.9,738.6 " />
	<polygon
   id="XMLID_48_"
   class="st3"
   points="772.1,732.2 781.6,742.8 781.6,815.8 762.6,815.8 762.6,742.8 " />
</g>
<ellipse
   style="stroke-width:1.49169"
   ry="5.4575186"
   rx="4.9946132"
   id="XMLID_219_"
   class="st28"
   cx="285.70032"
   cy="361.12576" />
<ellipse
   style="stroke-width:1.49169"
   ry="9.0438881"
   rx="8.2767868"
   id="XMLID_223_"
   class="st27"
   cx="257.87311"
   cy="372.8204" />
<ellipse
   style="stroke-width:1.49169"
   ry="6.7049518"
   rx="6.1362391"
   id="XMLID_228_"
   class="st31"
   cx="704.24878"
   cy="638.67957" />
<ellipse
   style="stroke-width:1.49169"
   ry="5.4575186"
   rx="4.9946132"
   id="XMLID_232_"
   class="st5"
   cx="687.12439"
   cy="619.65619" />
<line
   id="XMLID_25_"
   class="st3"
   x1="-39.054981"
   y1="738.09839"
   x2="1043.6128"
   y2="738.09839" />
<path
   style="stroke-width:1.49169"
   id="XMLID_132_"
   class="st4"
   d="m 813.13135,712.2781 c -0.28541,-2.33893 -0.28541,-4.67788 0,-7.17274 1.85512,-18.08778 16.69629,-31.18582 33.24985,-29.31467 16.55356,2.02707 28.54065,18.2437 26.82819,36.33149 z" />
<path
   id="XMLID_35_"
   class="st3"
   d="m 813.13135,712.2781 c -0.28541,-2.33893 -0.28541,-4.67788 0,-7.17274 1.85512,-18.08778 16.69629,-31.18582 33.24985,-29.31467 16.55356,2.02707 28.54065,18.2437 26.82819,36.33149 z" />
<path
   style="stroke-width:1.49169"
   id="XMLID_148_"
   class="st33"
   d="m 774.88689,714.30517 c -0.14269,-0.77963 -0.14269,-1.40337 -0.14269,-2.18299 0,-9.97948 7.42057,-18.08779 16.55356,-18.08779 9.13301,0 16.55359,8.10831 16.55359,18.08779 0,0.93558 0,1.87113 -0.14273,2.6508 z" />
<path
   style="stroke-width:1.49169"
   id="XMLID_221_"
   class="st33"
   d="m 638.03449,713.21367 c -0.1427,-1.09149 -0.1427,-2.02709 -0.1427,-3.11857 0,-14.81327 10.98816,-26.8198 24.54496,-26.8198 13.55682,0 24.54494,12.00653 24.54494,26.8198 0,1.40336 -0.14269,2.65078 -0.2854,4.05414 z" />
<path
   id="XMLID_5_"
   class="st3"
   d="m 693.22291,119.42143 c -17.4098,0 -31.96553,13.25397 -35.67581,31.0299 -6.56434,-11.2269 -17.98061,-18.55558 -30.9666,-18.55558 -5.56543,0 -10.98816,1.40338 -15.69736,3.89824" />







<line
   id="XMLID_259_"
   class="st3"
   x1="844.3833"
   y1="198.95952"
   x2="897.46906"
   y2="198.95952" />
<line
   id="XMLID_254_"
   class="st3"
   x1="804.14105"
   y1="198.95952"
   x2="816.12823"
   y2="198.95952" />
<line
   id="XMLID_256_"
   class="st3"
   x1="894.75763"
   y1="240.74846"
   x2="986.65857"
   y2="240.74846" />
<line
   id="XMLID_255_"
   class="st3"
   x1="851.80402"
   y1="240.74846"
   x2="870.92609"
   y2="240.74846" />
<line
   id="XMLID_263_"
   class="st3"
   x1="687.12439"
   y1="274.27322"
   x2="767.18097"
   y2="274.27322" />
<line
   id="XMLID_264_"
   class="st3"
   x1="734.64447"
   y1="240.74846"
   x2="798.43292"
   y2="240.74846" />
<line
   id="XMLID_266_"
   class="st3"
   x1="435.11057"
   y1="192.09865"
   x2="499.0416"
   y2="192.09865" />
<line
   id="XMLID_267_"
   class="st3"
   x1="499.0416"
   y1="240.74846"
   x2="531.00708"
   y2="240.74846" />
<line
   id="XMLID_257_"
   class="st3"
   x1="-119.43419"
   y1="164.96698"
   x2="-44.515007"
   y2="164.96698" />
<path
   id="XMLID_252_"
   class="st3"
   d="m 876.34888,176.34977 c 0,-12.47433 9.2757,-22.60972 20.69196,-22.60972 11.41626,0 20.69197,10.13539 20.69197,22.60972 0,12.47434 -9.27571,22.60973 -20.69197,22.60973" />
<path
   id="XMLID_265_"
   class="st3"
   d="m 749.77112,293.29661 c 0,10.44724 7.70597,18.86742 17.26708,18.86742 9.56113,0 17.2671,-8.42018 17.2671,-18.86742 0,-10.44726 -7.70597,-18.86744 -17.2671,-18.86744" />
<line
   id="XMLID_260_"
   class="st3"
   x1="-17.115978"
   y1="198.95952"
   x2="18.559835"
   y2="198.95952" />
<line
   id="XMLID_262_"
   class="st3"
   x1="-76.052399"
   y1="198.95952"
   x2="-44.515007"
   y2="198.95952" />
<path
   id="XMLID_258_"
   class="st3"
   d="m -2.5602537,176.34977 c 0,-12.47433 9.2757153,-22.60972 20.6919747,-22.60972 11.41625,0 20.691972,10.13539 20.691972,22.60972 0,12.47434 -9.275722,22.60973 -20.691972,22.60973" />
</svg>
